<svg xmlns="http://www.w3.org/2000/svg" viewBox="0 0 964.3 184.3"><path fill="#fff" fill-rule="evenodd" d="M36.1 183.8C35.3 183.3 35.4 166.3 36.1 165.8C36.5 165.5 52.2 165.4 92.4 165.4C123.0 165.3 148.2 165.2 148.4 165.1C148.5 165.0 148.7 163.3 148.7 161.4C148.7 158.7 148.5 157.7 148.2 157.4C147.8 157.1 130.1 157.0 74.3 157.0C33.9 157.1 0.6 157.0 0.4 156.9C-0.3 156.4 0.2 152.7 1.2 151.4C2.6 149.6 3.5 149.3 8.1 149.4C14.2 149.5 77.1 148.7 77.4 148.4C77.6 148.3 86.1 148.1 96.3 148.0C124.2 147.6 146.0 147.0 150.5 146.7C152.7 146.5 159.6 146.3 165.8 146.2C176.0 146.2 177.0 146.1 176.9 145.6C176.8 145.1 172.9 142.1 167.1 137.9C165.6 136.9 163.0 135.1 161.4 133.9C159.8 132.8 156.9 130.8 154.9 129.4C152.9 128.1 149.9 126.0 148.2 124.7C146.6 123.5 143.0 121.0 140.3 119.2C135.1 115.6 132.6 113.8 125.5 108.6C123.0 106.7 119.7 104.4 118.2 103.4C116.7 102.4 114.1 100.6 112.3 99.3C103.1 92.6 100.6 90.7 98.0 89.0C94.2 86.4 91.7 84.8 85.7 80.5C82.9 78.5 79.7 76.2 78.6 75.4C74.2 72.4 62.3 63.9 58.6 61.2C56.5 59.6 51.8 56.4 48.3 54.0C44.7 51.7 41.5 49.4 41.1 49.0L40.3 48.3L40.3 24.5C40.3 9.2 40.5 0.6 40.7 0.5C40.8 0.4 76.5 0.3 119.9 0.2C180.5 0.2 198.8 0.3 198.9 0.6C199.0 0.8 198.6 1.2 198.1 1.6C197.1 2.2 191.6 6.8 186.6 11.2C185.1 12.4 183.0 14.2 181.9 15.2C180.8 16.1 178.3 18.2 176.4 19.8C174.4 21.5 172.2 23.4 171.3 24.0C168.9 25.9 162.2 31.5 161.5 32.3L160.9 33.0L128.4 33.0C110.6 33.0 95.9 33.0 95.7 33.2C95.2 33.5 95.8 34.6 96.7 34.9C97.4 35.1 99.2 36.3 106.3 41.5C109.4 43.8 114.0 47.0 114.2 47.0C114.4 47.0 121.5 51.9 123.7 53.5C124.7 54.3 126.9 55.8 128.5 56.9C132.9 59.8 136.6 62.4 139.0 64.2C140.2 65.1 144.0 67.8 147.5 70.1C151.0 72.4 154.7 75.0 155.8 75.8C158.2 77.6 163.0 80.9 169.9 85.6C172.7 87.4 175.7 89.5 176.5 90.1C177.3 90.7 179.1 91.9 180.4 92.8C181.7 93.6 184.2 95.3 185.8 96.5C187.5 97.7 191.2 100.2 194.0 102.1C196.8 104.0 200.6 106.6 202.2 107.9C203.9 109.1 207.3 111.5 209.7 113.2C212.1 114.8 214.6 116.6 215.3 117.2L216.5 118.3L216.5 150.8C216.5 173.1 216.4 183.4 216.1 183.7C215.7 184.1 36.8 184.3 36.1 183.8ZM368.5 167.0C366.7 166.8 364.1 166.4 362.8 166.2C361.6 165.9 359.9 165.5 359.2 165.3C356.6 164.8 352.0 162.4 349.6 160.4C343.8 155.3 344.0 145.4 350.1 139.8C352.2 137.9 359.0 134.3 361.3 133.9C362.5 133.7 363.3 133.1 363.3 132.6C363.3 132.5 362.5 131.8 361.5 131.2C359.2 129.7 356.7 126.1 356.5 123.8C356.0 119.5 358.9 115.4 365.2 111.1C366.2 110.5 367.0 109.8 367.0 109.7C367.0 109.5 366.3 108.9 365.4 108.3C358.6 103.6 355.1 97.2 355.0 89.1C354.9 81.6 356.8 76.2 361.6 70.8C363.5 68.6 367.1 65.5 368.2 65.0C368.5 64.8 369.3 64.4 369.8 64.0C372.5 62.2 377.9 60.5 382.4 60.0C385.5 59.6 386.6 59.6 390.1 60.1C392.3 60.4 395.4 60.9 396.8 61.3C399.2 61.9 400.3 62.0 410.9 62.0C417.2 62.0 422.4 62.1 422.5 62.3C422.8 62.8 422.1 73.3 421.7 73.8C421.3 74.2 420.4 74.3 416.8 74.3C414.4 74.3 412.2 74.4 411.9 74.5C411.2 74.8 411.2 76.1 411.8 76.6C412.1 76.9 412.7 78.2 413.1 79.7C414.8 84.8 414.0 92.1 411.3 96.7C410.8 97.6 410.3 98.4 410.3 98.5C410.3 98.6 409.5 99.8 408.5 101.1C404.9 106.0 400.8 108.8 394.2 110.8C390.6 111.9 389.9 112.0 386.1 112.0C379.5 112.0 377.5 112.3 376.3 113.5C375.8 114.0 375.2 115.0 375.0 115.7C374.2 118.3 377.3 122.0 380.3 122.0C381.0 122.0 382.1 122.2 382.8 122.3C383.6 122.5 386.3 122.8 389.0 123.0C399.9 123.8 407.6 126.3 411.7 130.3C413.8 132.4 414.7 134.0 415.5 136.9C418.0 146.6 411.4 158.0 400.6 162.8C398.6 163.7 393.3 165.5 391.2 166.0C386.8 167.1 375.8 167.6 368.5 167.0ZM386.0 154.1C393.1 153.1 399.0 148.9 399.0 144.7C399.0 142.0 397.1 139.9 393.5 138.6C391.2 137.8 387.9 137.5 380.3 137.2C375.0 137.0 374.8 137.0 372.6 137.8C369.9 138.8 366.2 141.1 364.8 142.8C362.7 145.2 362.5 148.4 364.2 150.6C365.5 152.1 369.0 154.0 370.8 154.0C371.6 154.1 372.5 154.2 373.0 154.4C374.0 154.7 382.9 154.5 386.0 154.1ZM30.5 137.7C30.3 137.4 31.3 136.5 32.6 135.6C33.0 135.3 34.3 134.2 35.4 133.1C39.2 129.6 43.8 125.5 48.0 122.0C50.3 120.1 53.3 117.7 54.6 116.6C55.9 115.5 58.7 113.1 60.8 111.2C62.9 109.4 65.6 107.0 66.8 106.0C68.1 105.0 70.6 102.9 72.5 101.3C74.3 99.8 76.9 97.6 78.3 96.5C79.7 95.4 81.2 94.2 81.6 93.8C82.6 92.9 83.8 92.8 84.5 93.4C84.7 93.6 85.7 94.4 86.7 95.0C87.6 95.6 88.9 96.6 89.5 97.0C90.0 97.5 91.9 98.9 93.6 100.0C95.3 101.2 97.7 102.9 98.9 103.8C100.2 104.7 102.2 106.1 103.5 107.0C104.8 107.9 106.3 109.1 106.8 109.7C107.4 110.3 108.2 110.9 108.6 111.0C109.6 111.4 109.5 112.5 108.4 113.2C107.9 113.5 106.4 114.9 105.0 116.2C102.6 118.4 100.0 120.8 93.6 126.2C92.1 127.5 88.4 130.7 85.4 133.3L80.1 138.0L55.4 138.0C41.8 138.0 30.6 137.9 30.5 137.7ZM917.5 136.5C910.2 135.1 906.6 133.7 902.0 130.2C896.0 125.7 892.3 119.5 891.1 112.2C890.2 106.4 890.8 94.6 892.1 91.3C892.4 90.7 892.9 89.3 893.4 88.2C895.8 81.8 898.7 77.2 902.6 73.8C910.3 67.1 917.5 64.0 927.7 63.0C934.6 62.3 942.2 63.4 946.5 65.6C946.9 65.8 947.8 66.2 948.5 66.5C949.2 66.8 950.6 67.6 951.6 68.3C959.6 73.5 964.0 82.6 964.1 93.8C964.1 99.8 962.6 108.5 960.8 112.5C960.6 113.0 960.1 114.2 959.7 115.0C957.0 121.0 951.9 127.2 947.1 130.6C942.8 133.5 938.0 135.4 932.2 136.5C928.8 137.1 921.1 137.1 917.5 136.5ZM862.2 136.2C857.4 135.2 853.2 132.6 851.7 129.6C850.0 126.4 849.6 121.3 850.5 112.3C850.8 109.5 851.2 104.9 851.5 102.2C851.8 99.4 852.2 95.7 852.5 93.8C853.0 90.6 853.5 86.3 853.8 81.6C853.9 79.9 853.8 79.3 853.4 78.9C853.1 78.7 851.6 78.5 849.8 78.4C847.9 78.3 846.6 78.1 846.3 77.8C846.0 77.4 846.4 73.2 847.2 69.6C847.4 68.4 847.7 66.9 847.7 66.4C847.7 64.9 848.4 64.6 852.1 64.9C854.6 65.1 855.3 65.0 855.6 64.6C855.8 64.3 856.2 62.3 856.5 60.1C857.0 55.6 857.9 49.1 858.3 47.2C858.4 46.5 858.7 45.8 859.0 45.6C859.7 45.3 866.9 44.0 868.2 44.0C868.7 44.0 869.7 43.9 870.3 43.7C872.2 43.2 875.5 43.0 876.0 43.3C876.3 43.5 876.3 44.6 875.7 49.4C875.3 52.6 874.8 56.4 874.7 57.8C874.4 60.2 874.2 64.6 874.4 64.7C874.5 64.7 878.2 64.8 882.8 64.9C891.3 65.1 891.9 65.2 891.5 66.3C891.3 66.6 891.1 67.8 891.0 69.0C890.6 72.4 889.7 77.4 889.3 78.0C889.0 78.6 888.3 78.6 881.0 78.7C874.8 78.8 872.9 78.9 872.7 79.3C872.6 79.5 872.3 81.1 872.2 82.8C872.1 84.5 871.9 86.9 871.7 88.2C871.5 89.5 871.2 92.0 871.0 93.8C870.8 95.7 870.4 99.0 870.1 101.2C869.3 108.2 868.7 114.8 868.7 116.2C868.7 117.0 869.1 118.3 869.6 119.6C870.4 121.2 870.9 121.8 871.9 122.3C873.8 123.2 876.8 123.5 880.1 123.0C881.7 122.8 883.1 122.6 883.2 122.7C883.4 123.0 882.3 133.0 882.0 133.9C881.8 134.3 881.2 134.9 880.7 135.1C878.1 136.5 866.7 137.1 862.2 136.2ZM550.7 134.7C545.7 133.3 541.5 130.0 539.7 125.8C537.6 121.3 537.6 112.2 539.7 108.2C540.9 105.9 543.3 103.1 545.6 101.2C547.7 99.5 551.7 97.0 552.3 97.0C552.4 97.0 553.2 96.7 554.0 96.2C557.4 94.5 565.0 92.5 573.2 91.2C580.3 90.0 581.3 89.8 581.7 89.4C582.0 89.1 582.2 87.6 582.3 84.6C582.4 79.4 582.2 78.7 579.7 77.1C577.3 75.4 574.9 74.9 570.7 75.1C565.9 75.3 563.5 75.7 560.8 76.8C559.5 77.3 557.5 78.1 556.2 78.6C554.9 79.1 552.9 80.1 551.7 80.8C550.6 81.5 549.4 82.0 549.2 81.9C548.9 81.8 548.6 80.9 548.5 79.6C548.4 78.4 548.2 76.9 548.0 76.2C547.9 75.4 547.6 73.7 547.5 72.3L547.3 69.8L548.9 68.6C552.1 66.2 558.6 63.5 563.0 62.6C569.0 61.3 570.7 61.2 576.8 61.2C582.5 61.2 583.5 61.3 586.4 62.1C592.9 63.8 597.1 66.7 599.0 70.8C601.0 75.2 601.4 78.2 600.7 84.3C600.5 85.9 600.2 88.4 600.0 90.0C599.8 91.6 599.4 95.1 599.0 97.8C598.6 100.6 598.2 104.3 598.0 106.0C597.8 107.7 597.5 110.2 597.3 111.5C596.8 115.5 596.9 117.9 597.7 119.5C598.9 121.9 600.4 122.4 604.5 121.5C605.9 121.2 606.1 121.6 605.7 123.9C605.5 125.0 605.2 127.0 605.0 128.5C604.8 130.0 604.4 131.5 604.1 132.0C603.8 132.4 602.3 133.3 600.7 133.9C598.2 134.9 597.4 135.1 594.3 135.2C589.9 135.5 587.5 135.0 584.2 133.3C581.4 132.0 579.7 130.2 579.2 128.2C578.9 127.1 578.1 127.1 576.8 128.1C575.8 128.9 570.0 132.5 568.3 133.2C565.1 134.8 563.9 135.1 558.5 135.2C553.9 135.3 552.8 135.3 550.7 134.7ZM816.2 134.8C815.9 134.5 815.7 134.0 815.8 133.7C815.9 133.4 816.2 130.8 816.5 127.8C816.8 124.9 817.1 122.1 817.2 121.7C817.3 121.2 817.5 119.3 817.7 117.3C817.9 115.4 818.1 112.6 818.3 111.2C818.5 109.7 818.9 106.0 819.1 103.0C819.4 100.0 819.9 95.4 820.2 92.7C821.2 84.3 820.3 81.4 816.3 79.8C814.3 79.0 810.1 79.0 807.8 79.8C804.4 81.0 800.1 83.3 798.2 85.0C797.1 86.0 795.8 86.9 795.5 87.1C794.5 87.5 794.1 88.4 793.9 90.3C793.6 92.5 792.7 101.6 792.3 105.9C792.2 107.9 791.9 110.0 791.8 110.4C791.8 110.8 791.5 113.0 791.3 115.3C791.1 117.6 790.8 120.7 790.7 122.2C790.5 123.6 790.1 126.9 789.8 129.4C789.6 131.9 789.2 134.2 789.1 134.5C788.9 134.9 787.9 135.0 780.0 134.9L771.2 134.8L771.3 132.7C771.3 131.5 771.6 127.7 772.0 124.3C772.4 120.9 772.7 117.5 772.8 116.7C772.9 115.8 773.2 113.4 773.5 111.2C774.0 106.7 774.8 99.7 775.3 93.3C775.5 91.0 775.9 88.2 776.0 87.0C776.2 85.8 776.5 83.3 776.7 81.5C778.1 67.0 778.3 65.3 779.2 65.0C780.0 64.6 789.8 63.6 792.8 63.5L795.2 63.5L795.1 64.7C795.1 65.3 795.0 67.8 795.0 70.1C794.9 73.9 794.9 74.5 795.4 74.8C795.9 75.1 796.3 74.8 797.7 73.5C800.5 70.9 807.4 66.0 808.3 66.0C808.5 66.0 809.5 65.5 810.6 65.0C811.7 64.5 812.9 64.0 813.2 64.0C813.5 64.0 814.2 63.7 814.8 63.4C816.4 62.6 825.8 62.6 828.2 63.4C834.2 65.5 837.6 68.9 839.0 74.2C839.5 76.1 839.5 85.6 839.1 88.8C838.7 91.7 837.5 102.2 837.0 107.2C836.8 108.8 836.5 111.4 836.4 112.8C836.2 114.3 835.7 118.2 835.4 121.5C833.9 134.8 833.9 134.7 833.2 135.0C832.8 135.1 829.0 135.3 824.6 135.3C817.6 135.4 816.7 135.3 816.2 134.8ZM691.8 134.5C691.5 133.8 691.8 130.3 692.7 124.0C693.0 121.3 693.5 117.4 693.7 115.2C694.0 111.4 694.2 109.9 695.0 103.5C695.2 102.0 695.4 99.6 695.5 98.2C695.6 96.7 696.0 92.9 696.4 89.7C696.7 86.5 697.2 81.5 697.5 78.7C698.6 66.5 698.8 65.5 699.2 65.0C699.5 64.7 701.0 64.4 703.8 64.1C706.0 63.9 709.5 63.5 711.6 63.3C716.6 62.8 716.4 62.6 715.8 67.7C715.6 69.8 715.4 73.4 715.3 75.7C715.2 79.5 715.2 79.8 715.8 79.8C716.4 79.8 716.5 79.7 718.4 75.9C719.5 73.6 723.7 68.9 726.3 66.9C728.7 65.2 732.9 63.1 734.9 62.7C737.1 62.2 740.5 62.4 741.1 63.0C741.4 63.3 741.1 66.0 739.5 75.3C739.3 77.1 739.0 79.0 738.9 79.6L738.8 80.8L734.7 80.8C731.3 80.9 730.1 81.0 728.6 81.6C723.8 83.3 720.0 86.4 716.7 91.3C714.1 95.1 713.8 95.9 713.5 99.2C713.2 103.4 712.4 112.3 711.6 119.0C710.2 132.7 710.0 134.2 709.4 134.6C709.0 134.9 706.7 135.0 700.4 135.0C693.1 135.0 692.0 134.9 691.8 134.5ZM741.5 134.7C741.4 134.5 741.5 132.6 741.7 130.4C742.0 126.8 742.1 125.4 743.0 118.5C743.2 117.0 743.5 114.5 743.7 112.8C744.1 108.3 744.6 103.7 745.0 101.5C745.2 100.4 745.4 98.1 745.5 96.3C745.6 94.6 745.9 91.4 746.2 89.2C746.4 87.0 746.9 82.4 747.2 79.0C747.4 75.6 747.8 71.7 748.0 70.3C748.2 69.0 748.3 67.2 748.3 66.4C748.3 65.4 748.5 64.9 748.9 64.7C749.2 64.6 753.3 64.4 758.0 64.3L766.5 64.2L766.4 67.7C766.3 71.6 764.9 86.1 764.0 92.5C763.5 95.7 762.4 105.7 762.0 110.0C761.8 111.9 761.4 115.6 761.2 118.2C760.9 120.7 760.5 125.2 760.3 128.2C760.1 131.1 759.8 133.8 759.7 134.2L759.3 135.0L750.5 135.0C745.5 135.0 741.6 134.9 741.5 134.7ZM271.3 134.5C264.6 133.8 262.0 133.5 259.2 132.8C253.9 131.5 249.6 130.2 247.9 129.3C247.1 128.8 247.2 128.0 248.5 123.8C249.1 121.8 250.2 118.6 250.7 116.6C251.3 114.6 252.0 113.0 252.2 112.9C252.4 112.8 253.2 113.0 254.0 113.4C260.0 116.2 265.5 117.6 272.5 118.1C278.2 118.4 279.1 118.4 284.2 117.3C289.8 116.0 294.3 112.3 295.7 107.7C297.0 103.2 296.4 98.9 294.0 96.2C290.9 92.7 287.5 90.6 275.0 84.7C274.0 84.3 272.0 83.2 270.7 82.4C261.8 77.0 257.4 71.8 255.8 64.5C255.0 60.8 255.3 52.7 256.3 48.9C257.3 45.4 259.0 41.8 260.9 39.4C263.8 35.7 269.0 31.3 272.2 29.7C273.1 29.3 274.2 28.7 274.7 28.5C276.1 27.8 281.4 26.3 284.3 25.7C288.1 25.1 297.7 24.9 301.8 25.3C308.3 26.0 310.9 26.5 314.7 28.0C315.7 28.4 316.9 28.9 317.5 29.0C318.6 29.4 319.7 30.3 319.7 30.9C319.7 31.1 319.5 31.8 319.2 32.4C318.9 33.0 317.9 36.0 316.8 38.9L314.9 44.4L313.4 44.2C312.5 44.0 311.2 43.7 310.5 43.5C306.3 42.2 298.9 41.0 294.4 41.0C291.2 41.0 285.7 42.1 283.1 43.3C279.9 44.8 277.1 48.0 276.0 51.2C275.4 53.3 275.7 56.8 276.8 59.1C277.6 60.9 281.2 65.0 282.0 65.0C282.1 65.0 283.1 65.5 284.1 66.2C285.0 66.8 288.5 68.6 291.7 70.2C294.9 71.7 297.7 73.2 298.0 73.3C298.3 73.5 299.1 73.9 299.8 74.3C302.3 75.4 307.2 79.1 310.0 82.0C314.4 86.5 316.4 91.1 316.9 97.9C317.5 107.2 313.2 118.4 307.0 124.1C301.8 128.8 295.6 132.0 289.0 133.3C284.3 134.3 275.6 134.8 271.3 134.5ZM615.5 134.2C615.2 134.1 615.0 133.4 615.0 132.4C615.0 129.8 616.2 117.9 617.3 109.0C617.8 105.7 618.2 101.3 618.7 96.0C618.9 93.9 619.2 90.1 619.5 87.7C619.8 85.2 620.2 81.8 620.3 80.2C620.5 78.5 620.9 74.5 621.3 71.2C622.1 64.2 623.5 50.9 624.0 45.3C624.5 39.4 625.8 30.3 626.1 29.8C626.6 29.1 662.3 28.9 665.8 29.6C667.1 29.8 669.1 30.2 670.2 30.4C673.5 31.0 677.0 32.2 679.8 33.9C683.3 35.9 685.0 37.3 686.8 39.6C689.5 43.1 690.7 46.2 691.7 51.8C692.7 57.6 692.5 61.5 690.6 68.8C688.6 76.7 684.6 82.8 678.5 87.4C674.9 90.1 672.6 91.3 666.8 93.2C660.1 95.4 655.5 96.0 644.9 96.0C639.0 96.0 638.3 96.1 638.0 96.6C637.9 96.9 637.6 98.5 637.5 100.2C637.3 102.8 637.0 106.2 636.0 114.5C635.9 115.8 635.6 118.4 635.4 120.3C635.2 122.3 634.8 124.7 634.7 125.7C634.5 126.7 634.3 128.9 634.1 130.6C634.0 132.7 633.7 133.8 633.4 134.1C632.8 134.6 616.3 134.7 615.5 134.2ZM330.0 133.4C326.6 132.2 324.0 129.4 323.5 126.4C323.0 122.9 323.3 116.4 324.7 106.5C325.0 103.9 325.4 100.7 325.5 99.3C325.6 98.0 326.0 94.7 326.3 92.2C326.7 89.6 327.1 85.5 327.3 83.0C327.8 77.2 329.0 66.3 329.2 65.9C329.3 65.8 329.4 64.9 329.4 63.8C329.4 61.5 329.9 61.0 332.0 61.0C332.9 61.0 335.1 60.9 336.9 60.7C338.7 60.5 341.7 60.3 343.6 60.2C347.7 60.0 348.1 60.2 347.8 62.6C347.5 65.4 347.0 70.1 346.7 73.5C346.5 75.3 346.1 78.9 345.9 81.3C345.6 83.8 345.3 87.0 345.2 88.5C344.8 93.4 344.0 102.2 343.8 103.0C343.5 104.7 342.6 114.3 342.4 118.2C342.2 123.5 342.7 124.9 345.3 126.7C346.3 127.4 347.5 128.0 348.0 128.1C348.5 128.1 348.9 128.4 348.9 128.8C349.0 129.4 348.5 129.8 346.4 130.9C341.7 133.4 340.6 133.7 335.8 133.9C332.4 134.0 331.2 133.9 330.0 133.4ZM515.2 133.4C512.8 133.4 510.7 133.2 510.6 133.1C510.4 132.8 510.9 125.6 511.6 117.7C511.8 115.9 512.1 112.9 512.3 111.0C512.5 109.1 512.8 106.3 513.0 104.8C513.7 99.1 514.7 86.4 514.6 84.1C514.5 82.1 514.3 81.5 513.5 80.3C511.4 77.2 506.8 76.3 502.2 78.2C497.1 80.2 494.1 82.0 490.9 85.1C489.5 86.5 489.5 86.6 489.0 93.3C488.8 96.0 488.4 100.9 488.0 104.2C487.7 107.5 487.0 113.2 486.6 117.0C486.3 120.8 485.7 125.9 485.4 128.5L484.8 133.2L475.8 133.2L466.8 133.2L466.9 132.0C466.9 130.7 467.5 124.4 468.0 120.5C468.2 119.0 468.5 116.3 468.7 114.3C468.8 112.4 469.2 109.0 469.5 106.7C469.8 104.4 470.2 101.0 470.3 99.2C470.5 97.3 470.8 94.2 471.0 92.2C471.8 84.7 471.6 82.0 469.9 79.5C468.4 77.4 464.0 76.5 460.2 77.6C458.9 78.0 457.7 78.5 457.5 78.7C457.4 78.8 457.0 79.0 456.7 79.0C455.7 79.0 451.1 81.9 448.8 84.2C446.5 86.2 446.3 86.5 446.3 87.8C446.3 88.5 446.2 90.1 446.0 91.3C445.8 92.5 445.4 95.8 445.2 98.5C444.9 101.2 444.5 105.4 444.2 107.7C443.9 110.0 443.3 115.0 442.9 118.8C442.4 122.7 441.9 127.3 441.8 129.1C441.7 130.8 441.5 132.4 441.3 132.7C441.2 133.0 438.8 133.1 432.4 133.0C427.6 133.0 423.5 132.9 423.3 132.8C423.1 132.7 423.0 132.1 423.1 131.5C423.3 130.6 424.0 123.9 425.3 111.5C425.5 109.7 425.9 106.0 426.2 103.3C427.0 95.7 428.3 81.8 428.6 78.0C429.1 72.6 430.0 64.6 430.2 63.8C430.3 63.4 430.6 63.0 430.9 62.9C432.0 62.5 443.5 61.2 445.7 61.2L447.8 61.2L447.7 64.2C447.4 69.4 447.5 72.8 447.9 72.9C448.1 73.0 448.6 72.6 449.1 72.2C452.0 68.8 460.2 63.5 465.0 61.9C469.3 60.5 470.6 60.3 474.2 60.4C477.3 60.5 478.2 60.7 480.4 61.6C483.8 62.9 485.3 64.0 486.9 66.1C488.7 68.4 489.1 69.2 489.5 71.2C490.1 73.6 490.6 73.5 493.6 70.6C496.8 67.5 498.2 66.4 501.2 64.8C502.4 64.1 503.7 63.5 503.8 63.3C504.3 63.0 508.8 61.4 511.3 60.8C514.2 60.0 520.0 60.3 522.8 61.4C528.8 63.6 531.8 66.7 533.2 71.9C534.2 75.3 533.8 84.7 532.2 96.5C531.9 98.5 531.4 102.6 531.2 105.6C530.9 108.7 530.4 113.2 530.2 115.7C529.6 120.7 528.7 130.5 528.7 131.5C528.7 133.1 528.1 133.4 523.7 133.5C521.4 133.5 517.6 133.5 515.2 133.4ZM930.0 122.4C932.9 121.5 933.8 121.1 935.8 119.6C939.5 117.0 942.2 112.8 943.3 108.0C944.6 102.6 944.8 101.3 944.8 96.5C944.8 91.0 944.5 88.9 943.1 85.3C940.5 78.5 932.4 75.2 924.2 77.5C917.2 79.5 913.0 84.6 910.9 93.8C910.0 97.3 909.9 98.4 910.0 103.2C910.0 109.1 910.7 112.6 912.5 115.7C914.1 118.4 915.5 119.7 918.5 121.4C921.4 123.0 926.4 123.4 930.0 122.4ZM569.0 121.6C570.2 121.2 571.9 120.4 572.8 119.9C574.2 119.0 578.5 116.2 579.0 115.8C579.1 115.7 579.4 112.6 579.7 108.9C580.3 103.1 580.3 102.1 579.9 101.7C579.4 101.3 578.8 101.3 574.9 102.0C572.5 102.4 569.6 103.0 568.6 103.4C567.5 103.7 566.5 104.0 566.3 104.0C566.1 104.0 565.0 104.5 563.8 105.1C557.2 108.3 554.5 115.8 558.5 119.8C560.1 121.3 561.0 121.8 562.8 122.0C565.9 122.4 566.8 122.3 569.0 121.6ZM387.8 99.0C392.1 97.6 394.5 94.8 396.1 89.6C397.0 86.6 397.1 85.8 396.9 83.5C396.5 79.0 394.7 76.0 391.0 74.1C388.2 72.5 385.8 72.3 382.6 73.3C378.4 74.7 375.8 77.2 373.8 81.7C373.3 82.9 373.2 83.9 373.2 87.7C373.2 92.0 373.2 92.2 374.1 93.8C375.3 95.8 376.8 97.5 378.2 98.3C381.0 99.8 384.7 100.1 387.8 99.0ZM655.1 80.5C658.8 79.6 661.8 78.5 663.7 77.2C666.1 75.7 669.4 72.2 670.4 70.1C671.7 67.7 672.4 63.7 672.4 59.7C672.5 51.2 669.5 47.2 661.5 45.0C659.2 44.3 657.9 44.2 651.7 44.1C647.7 44.0 644.4 44.1 644.0 44.3C643.6 44.6 643.4 45.2 643.2 47.1C643.1 48.4 642.9 50.9 642.7 52.5C642.5 54.1 642.2 56.9 642.0 58.7C641.8 60.4 641.3 65.6 640.8 70.3C640.4 75.0 639.9 78.9 639.8 79.1C639.7 79.2 639.9 79.7 640.1 80.2L640.7 81.0L646.7 81.0C651.0 81.0 653.4 80.8 655.1 80.5ZM178.1 69.2C177.7 68.4 177.6 66.6 177.8 51.0C177.9 38.9 178.1 33.4 178.4 33.1C178.9 32.4 212.2 32.5 213.2 33.1C213.8 33.6 213.8 34.2 213.8 50.9C213.8 60.4 213.7 68.6 213.6 69.1L213.3 70.0L196.0 70.0L178.7 70.0L178.1 69.2ZM755.2 51.2C751.7 49.8 750.0 48.2 749.1 45.5C748.4 43.0 748.6 41.8 750.0 38.9C751.4 35.9 752.0 35.2 754.7 33.6C758.5 31.3 763.0 31.1 766.7 33.0C770.3 35.0 771.8 37.5 771.8 41.4C771.7 43.2 770.9 45.3 769.4 47.1C768.0 48.7 765.5 50.4 763.4 51.0C760.8 51.7 756.8 51.9 755.2 51.2ZM335.3 46.9C332.8 45.6 330.8 43.5 330.3 41.7C330.2 41.0 330.0 39.4 330.0 38.2C330.0 34.4 331.9 31.2 335.5 28.8C339.5 26.1 347.1 26.5 350.1 29.4C350.6 30.0 351.5 31.4 352.1 32.6C353.3 35.3 353.3 37.5 352.1 40.0C349.7 45.0 346.0 47.5 340.2 47.8C337.6 48.0 337.4 48.0 335.3 46.9Z"/></svg>
